<svg width="30"
     height="35"
     viewBox="0 0 30 35"
     fill="none"
    <path id="join"
          d="M25.4765 15.8004C26.6426 13.8602 26.9529 11.7955 26.4073 9.60611C25.8618 7.41675 24.6189 5.73901 22.6788 4.57289C20.7386 3.40678 18.6738 3.0965 16.4845 3.64207C14.2951 4.18763 12.6174 5.43049 11.4513 7.37065C11.0719 8.00179 10.7849 8.66457 10.5903 9.35899C10.3957 10.0534 10.2957 10.7491 10.2905 11.446C11.5395 11.2739 12.7871 11.3158 14.0334 11.5716C15.2797 11.8275 16.4755 12.2996 17.6209 12.9881C18.7663 13.6765 19.7444 14.5109 20.5551 15.4914C21.3659 16.4719 21.9883 17.554 22.4224 18.7377C23.0353 18.4061 23.6028 17.9914 24.1247 17.4937C24.6466 16.996 25.0972 16.4315 25.4765 15.8004ZM19.2996 19.7246C18.9821 18.9292 18.5407 18.1945 17.9753 17.5206C17.4098 16.8466 16.7297 16.2708 15.935 15.7931C15.1402 15.3154 14.3126 14.985 13.4521 14.802C12.5916 14.6189 11.7357 14.5738 10.8844 14.6667C11.2019 15.4621 11.6433 16.1967 12.2087 16.8707C12.7742 17.5447 13.4543 18.1205 14.249 18.5982C15.0438 19.0758 15.8714 19.4062 16.7319 19.5893C17.5923 19.7724 18.4482 19.8174 19.2996 19.7246ZM18.7327 27.0206C19.1121 26.3895 19.3991 25.7267 19.5937 25.0323C19.7883 24.3379 19.8882 23.6422 19.8935 22.9453C18.6445 23.1174 17.3969 23.0755 16.1506 22.8196C14.9043 22.5638 13.7085 22.0916 12.5631 21.4032C11.4177 20.7148 10.4396 19.8803 9.62885 18.8998C8.8181 17.9193 8.19568 16.8372 7.7616 15.6536C7.14863 15.9852 6.5812 16.3998 6.05931 16.8976C5.53742 17.3953 5.0868 17.9597 4.70746 18.5909C3.54135 20.531 3.23107 22.5958 3.77663 24.7851C4.3222 26.9745 5.56506 28.6523 7.50522 29.8184C9.44538 30.9845 11.5101 31.2948 13.6995 30.7492C15.8889 30.2036 17.5666 28.9608 18.7327 27.0206ZM21.5378 28.7066C19.894 31.4415 17.547 33.189 14.4969 33.949C11.4467 34.7091 8.5542 34.2672 5.81927 32.6234C3.08434 30.9796 1.33685 28.6326 0.576795 25.5825C-0.183262 22.5324 0.258609 19.6398 1.90241 16.9049C2.53464 15.853 3.2872 14.945 4.16009 14.181C5.03298 13.4169 5.98877 12.8061 7.02747 12.3485C6.94414 11.2166 7.03504 10.0859 7.30017 8.95657C7.5653 7.82722 8.01398 6.7366 8.64621 5.6847C10.29 2.94978 12.637 1.20229 15.6871 0.442227C18.7373 -0.317829 21.6298 0.12404 24.3647 1.76784C27.0996 3.41164 28.8471 5.75861 29.6072 8.80875C30.3672 11.8589 29.9254 14.7514 28.2816 17.4863C27.6493 18.5382 26.8968 19.4462 26.0239 20.2103C25.151 20.9743 24.1952 21.5852 23.1565 22.0427C23.2398 23.1747 23.1489 24.3053 22.8838 25.4347C22.6187 26.564 22.17 27.6547 21.5378 28.7066Z"
          fill="black" />
</svg>