<svg width="41" height="41" viewBox="0 0 41 41" fill="none" xmlns="http://www.w3.org/2000/svg">
<g id="Social Network">
<g id="instagram">
<path d="M20.335 11.9747C22.9856 11.9747 23.347 11.9747 24.4313 11.9747C25.3952 11.9747 25.8771 12.2157 26.2386 12.3362C26.7205 12.5771 27.082 12.6976 27.4434 13.059C27.8048 13.4205 28.0458 13.7819 28.1663 14.2639C28.2868 14.6253 28.4073 15.1072 28.5277 16.0711C28.5277 17.1554 28.5277 17.3964 28.5277 20.1675C28.5277 22.9386 28.5277 23.1795 28.5277 24.2639C28.5277 25.2277 28.2868 25.7097 28.1663 26.0711C27.9253 26.553 27.8048 26.9145 27.4434 27.2759C27.082 27.6374 26.7205 27.8783 26.2386 27.9988C25.8771 28.1193 25.3952 28.2398 24.4313 28.3603C23.347 28.3603 23.106 28.3603 20.335 28.3603C17.5639 28.3603 17.3229 28.3603 16.2386 28.3603C15.2747 28.3603 14.7928 28.1193 14.4313 27.9988C13.9494 27.7578 13.588 27.6374 13.2265 27.2759C12.8651 26.9145 12.6241 26.553 12.5036 26.0711C12.3832 25.7097 12.2627 25.2277 12.1422 24.2639C12.1422 23.1795 12.1422 22.9386 12.1422 20.1675C12.1422 17.3964 12.1422 17.1554 12.1422 16.0711C12.1422 15.1072 12.3832 14.6253 12.5036 14.2639C12.7446 13.7819 12.8651 13.4205 13.2265 13.059C13.588 12.6976 13.9494 12.4566 14.4313 12.3362C14.7928 12.2157 15.2747 12.0952 16.2386 11.9747C17.3229 11.9747 17.6844 11.9747 20.335 11.9747ZM20.335 10.1675C17.5639 10.1675 17.3229 10.1675 16.2386 10.1675C15.1542 10.1675 14.4313 10.4084 13.8289 10.6494C13.2265 10.8904 12.6241 11.2518 12.0217 11.8542C11.4193 12.4566 11.1783 12.9386 10.8169 13.6615C10.5759 14.2639 10.4554 14.9868 10.335 16.0711C10.335 17.1554 10.335 17.5169 10.335 20.1675C10.335 22.9386 10.335 23.1795 10.335 24.2639C10.335 25.3482 10.5759 26.0711 10.8169 26.6735C11.0579 27.2759 11.4193 27.8783 12.0217 28.4807C12.6241 29.0831 13.106 29.3241 13.8289 29.6856C14.4313 29.9265 15.1542 30.047 16.2386 30.1675C17.3229 30.1675 17.6844 30.1675 20.335 30.1675C22.9856 30.1675 23.347 30.1675 24.4313 30.1675C25.5157 30.1675 26.2386 29.9265 26.841 29.6856C27.4434 29.4446 28.0458 29.0831 28.6482 28.4807C29.2506 27.8783 29.4916 27.3964 29.853 26.6735C30.094 26.0711 30.2145 25.3482 30.335 24.2639C30.335 23.1795 30.335 22.8181 30.335 20.1675C30.335 17.5169 30.335 17.1554 30.335 16.0711C30.335 14.9868 30.094 14.2639 29.853 13.6615C29.6121 13.059 29.2506 12.4566 28.6482 11.8542C28.0458 11.2518 27.5639 11.0109 26.841 10.6494C26.2386 10.4084 25.5157 10.288 24.4313 10.1675C23.347 10.1675 23.106 10.1675 20.335 10.1675Z" fill="white"/>
<path d="M20.335 14.9868C17.4434 14.9868 15.1542 17.2759 15.1542 20.1675C15.1542 23.059 17.4434 25.3482 20.335 25.3482C23.2265 25.3482 25.5157 23.059 25.5157 20.1675C25.5157 17.2759 23.2265 14.9868 20.335 14.9868ZM20.335 23.541C18.5277 23.541 16.9615 22.0952 16.9615 20.1675C16.9615 18.3603 18.4073 16.794 20.335 16.794C22.1422 16.794 23.7085 18.2398 23.7085 20.1675C23.7085 21.9747 22.1422 23.541 20.335 23.541Z" fill="white"/>
<path d="M25.6362 16.0711C26.3016 16.0711 26.841 15.5317 26.841 14.8663C26.841 14.2009 26.3016 13.6615 25.6362 13.6615C24.9708 13.6615 24.4313 14.2009 24.4313 14.8663C24.4313 15.5317 24.9708 16.0711 25.6362 16.0711Z" fill="white"/>
</g>
</g>
</svg>
