<svg width="30" height="35" viewBox="0 0 30 35" fill="none" xmlns="http://www.w3.org/2000/svg">
<path id="join" d="M25.4765 15.8C26.6426 13.8598 26.9529 11.795 26.4073 9.60568C25.8618 7.41632 24.6189 5.73858 22.6788 4.57247C20.7386 3.40635 18.6738 3.09607 16.4845 3.64164C14.2951 4.1872 12.6174 5.43006 11.4513 7.37022C11.0719 8.00136 10.7849 8.66414 10.5903 9.35856C10.3957 10.053 10.2957 10.7486 10.2905 11.4455C11.5395 11.2734 12.7871 11.3153 14.0334 11.5712C15.2797 11.827 16.4755 12.2992 17.6209 12.9876C18.7663 13.6761 19.7444 14.5105 20.5551 15.491C21.3659 16.4715 21.9883 17.5536 22.4224 18.7373C23.0353 18.4057 23.6028 17.991 24.1247 17.4933C24.6466 16.9955 25.0972 16.4311 25.4765 15.8ZM19.2996 19.7241C18.9821 18.9288 18.5407 18.1941 17.9753 17.5201C17.4098 16.8462 16.7297 16.2704 15.935 15.7927C15.1402 15.315 14.3126 14.9846 13.4521 14.8015C12.5916 14.6185 11.7357 14.5734 10.8844 14.6663C11.2019 15.4617 11.6433 16.1963 12.2087 16.8703C12.7742 17.5442 13.4543 18.12 14.249 18.5977C15.0438 19.0754 15.8714 19.4058 16.7319 19.5889C17.5923 19.7719 18.4482 19.817 19.2996 19.7241ZM18.7327 27.0202C19.1121 26.389 19.3991 25.7263 19.5937 25.0318C19.7883 24.3374 19.8882 23.6418 19.8935 22.9449C18.6445 23.117 17.3969 23.0751 16.1506 22.8192C14.9043 22.5634 13.7085 22.0912 12.5631 21.4028C11.4177 20.7144 10.4396 19.8799 9.62885 18.8994C8.8181 17.9189 8.19568 16.8368 7.7616 15.6531C7.14863 15.9847 6.5812 16.3994 6.05931 16.8971C5.53742 17.3949 5.0868 17.9593 4.70746 18.5904C3.54135 20.5306 3.23107 22.5954 3.77663 24.7847C4.3222 26.9741 5.56506 28.6518 7.50522 29.8179C9.44538 30.9841 11.5101 31.2943 13.6995 30.7488C15.8889 30.2032 17.5666 28.9603 18.7327 27.0202ZM21.5378 28.7061C19.894 31.4411 17.547 33.1885 14.4969 33.9486C11.4467 34.7087 8.5542 34.2668 5.81927 32.623C3.08434 30.9792 1.33685 28.6322 0.576795 25.5821C-0.183262 22.5319 0.258609 19.6394 1.90241 16.9045C2.53464 15.8526 3.2872 14.9446 4.16009 14.1806C5.03298 13.4165 5.98877 12.8057 7.02747 12.3481C6.94414 11.2161 7.03504 10.0855 7.30017 8.95614C7.5653 7.82679 8.01398 6.73617 8.64621 5.68428C10.29 2.94935 12.637 1.20186 15.6871 0.4418C18.7373 -0.318256 21.6298 0.123613 24.3647 1.76741C27.0996 3.41121 28.8471 5.75819 29.6072 8.80832C30.3672 11.8585 29.9254 14.751 28.2816 17.4859C27.6493 18.5378 26.8968 19.4458 26.0239 20.2099C25.151 20.9739 24.1952 21.5847 23.1565 22.0423C23.2398 23.1743 23.1489 24.3049 22.8838 25.4343C22.6187 26.5636 22.17 27.6542 21.5378 28.7061Z" fill="white"/>
</svg>
